<?xml version="1.0" encoding="UTF-8"?>
<!DOCTYPE svg PUBLIC "-//W3C//DTD SVG 1.1//EN" "http://www.w3.org/Graphics/SVG/1.1/DTD/svg11.dtd">
<svg xmlns="http://www.w3.org/2000/svg" version="1.1" width="140px" height="140px" style="shape-rendering:geometricPrecision; text-rendering:geometricPrecision; image-rendering:optimizeQuality; fill-rule:evenodd; clip-rule:evenodd" xmlns:xlink="http://www.w3.org/1999/xlink">
<g><path style="opacity:1" fill="#f1d500" d="M 39.5,39.5 C 36.1667,39.5 32.8333,39.5 29.5,39.5C 29.5,36.1667 29.5,32.8333 29.5,29.5C 32.8333,29.5 36.1667,29.5 39.5,29.5C 39.5,32.8333 39.5,36.1667 39.5,39.5 Z"/></g>
<g><path style="opacity:1" fill="#f1d500" d="M 89.5,39.5 C 89.5,36.1667 89.5,32.8333 89.5,29.5C 92.8333,29.5 96.1667,29.5 99.5,29.5C 99.5,32.8333 99.5,36.1667 99.5,39.5C 96.1667,39.5 92.8333,39.5 89.5,39.5 Z"/></g>
<g><path style="opacity:1" fill="#f1d500" d="M 39.5,39.5 C 42.8333,39.5 46.1667,39.5 49.5,39.5C 49.5,42.8333 49.5,46.1667 49.5,49.5C 59.5,49.5 69.5,49.5 79.5,49.5C 79.5,46.1667 79.5,42.8333 79.5,39.5C 82.8333,39.5 86.1667,39.5 89.5,39.5C 89.5,42.8333 89.5,46.1667 89.5,49.5C 92.8333,49.5 96.1667,49.5 99.5,49.5C 99.5,52.8333 99.5,56.1667 99.5,59.5C 102.833,59.5 106.167,59.5 109.5,59.5C 109.5,62.8333 109.5,66.1667 109.5,69.5C 112.833,69.5 116.167,69.5 119.5,69.5C 119.5,79.5 119.5,89.5 119.5,99.5C 116.167,99.5 112.833,99.5 109.5,99.5C 109.5,92.8333 109.5,86.1667 109.5,79.5C 106.167,79.5 102.833,79.5 99.5,79.5C 99.5,86.1667 99.5,92.8333 99.5,99.5C 96.1667,99.5 92.8333,99.5 89.5,99.5C 89.5,96.1667 89.5,92.8333 89.5,89.5C 72.8333,89.5 56.1667,89.5 39.5,89.5C 39.5,92.8333 39.5,96.1667 39.5,99.5C 36.1667,99.5 32.8333,99.5 29.5,99.5C 29.5,92.8333 29.5,86.1667 29.5,79.5C 26.1667,79.5 22.8333,79.5 19.5,79.5C 19.5,86.1667 19.5,92.8333 19.5,99.5C 16.1667,99.5 12.8333,99.5 9.5,99.5C 9.5,89.5 9.5,79.5 9.5,69.5C 12.8333,69.5 16.1667,69.5 19.5,69.5C 19.5,66.1667 19.5,62.8333 19.5,59.5C 22.8333,59.5 26.1667,59.5 29.5,59.5C 29.5,56.1667 29.5,52.8333 29.5,49.5C 32.8333,49.5 36.1667,49.5 39.5,49.5C 39.5,46.1667 39.5,42.8333 39.5,39.5 Z M 39.5,59.5 C 42.8333,59.5 46.1667,59.5 49.5,59.5C 49.5,62.8333 49.5,66.1667 49.5,69.5C 46.1667,69.5 42.8333,69.5 39.5,69.5C 39.5,66.1667 39.5,62.8333 39.5,59.5 Z M 79.5,59.5 C 82.8333,59.5 86.1667,59.5 89.5,59.5C 89.5,62.8333 89.5,66.1667 89.5,69.5C 86.1667,69.5 82.8333,69.5 79.5,69.5C 79.5,66.1667 79.5,62.8333 79.5,59.5 Z"/></g>
<g><path style="opacity:1" fill="#f1d500" d="M 39.5,99.5 C 46.1667,99.5 52.8333,99.5 59.5,99.5C 59.5,102.833 59.5,106.167 59.5,109.5C 52.8333,109.5 46.1667,109.5 39.5,109.5C 39.5,106.167 39.5,102.833 39.5,99.5 Z"/></g>
<g><path style="opacity:1" fill="#f1d500" d="M 89.5,99.5 C 89.5,102.833 89.5,106.167 89.5,109.5C 82.8333,109.5 76.1667,109.5 69.5,109.5C 69.5,106.167 69.5,102.833 69.5,99.5C 76.1667,99.5 82.8333,99.5 89.5,99.5 Z"/></g>
</svg>
