<?xml version="1.0" encoding="UTF-8"?>
<!DOCTYPE svg PUBLIC "-//W3C//DTD SVG 1.1//EN" "http://www.w3.org/Graphics/SVG/1.1/DTD/svg11.dtd">
<svg xmlns="http://www.w3.org/2000/svg" version="1.1" width="160px" height="160px" style="shape-rendering:geometricPrecision; text-rendering:geometricPrecision; image-rendering:optimizeQuality; fill-rule:evenodd; clip-rule:evenodd" xmlns:xlink="http://www.w3.org/1999/xlink">
<g><path style="opacity:1" fill="#9eb2bb" d="M 29.5,-0.5 C 36.1667,-0.5 42.8333,-0.5 49.5,-0.5C 49.5,2.83333 49.5,6.16667 49.5,9.5C 52.8333,9.5 56.1667,9.5 59.5,9.5C 59.5,12.8333 59.5,16.1667 59.5,19.5C 62.8333,19.5 66.1667,19.5 69.5,19.5C 69.5,22.8333 69.5,26.1667 69.5,29.5C 76.1667,29.5 82.8333,29.5 89.5,29.5C 89.5,26.1667 89.5,22.8333 89.5,19.5C 92.8333,19.5 96.1667,19.5 99.5,19.5C 99.5,16.1667 99.5,12.8333 99.5,9.5C 102.833,9.5 106.167,9.5 109.5,9.5C 109.5,6.16667 109.5,2.83333 109.5,-0.5C 116.167,-0.5 122.833,-0.5 129.5,-0.5C 129.5,2.83333 129.5,6.16667 129.5,9.5C 132.833,9.5 136.167,9.5 139.5,9.5C 139.5,12.8333 139.5,16.1667 139.5,19.5C 142.833,19.5 146.167,19.5 149.5,19.5C 149.5,22.8333 149.5,26.1667 149.5,29.5C 152.833,29.5 156.167,29.5 159.5,29.5C 159.5,49.5 159.5,69.5 159.5,89.5C 156.167,89.5 152.833,89.5 149.5,89.5C 149.5,92.8333 149.5,96.1667 149.5,99.5C 146.167,99.5 142.833,99.5 139.5,99.5C 139.5,102.833 139.5,106.167 139.5,109.5C 136.167,109.5 132.833,109.5 129.5,109.5C 129.5,112.833 129.5,116.167 129.5,119.5C 126.167,119.5 122.833,119.5 119.5,119.5C 119.5,122.833 119.5,126.167 119.5,129.5C 116.167,129.5 112.833,129.5 109.5,129.5C 109.5,132.833 109.5,136.167 109.5,139.5C 106.167,139.5 102.833,139.5 99.5,139.5C 99.5,142.833 99.5,146.167 99.5,149.5C 96.1667,149.5 92.8333,149.5 89.5,149.5C 89.5,152.833 89.5,156.167 89.5,159.5C 82.8333,159.5 76.1667,159.5 69.5,159.5C 69.5,156.167 69.5,152.833 69.5,149.5C 66.1667,149.5 62.8333,149.5 59.5,149.5C 59.5,146.167 59.5,142.833 59.5,139.5C 56.1667,139.5 52.8333,139.5 49.5,139.5C 49.5,136.167 49.5,132.833 49.5,129.5C 46.1667,129.5 42.8333,129.5 39.5,129.5C 39.5,126.167 39.5,122.833 39.5,119.5C 36.1667,119.5 32.8333,119.5 29.5,119.5C 29.5,116.167 29.5,112.833 29.5,109.5C 26.1667,109.5 22.8333,109.5 19.5,109.5C 19.5,106.167 19.5,102.833 19.5,99.5C 16.1667,99.5 12.8333,99.5 9.5,99.5C 9.5,96.1667 9.5,92.8333 9.5,89.5C 6.16667,89.5 2.83333,89.5 -0.5,89.5C -0.5,69.5 -0.5,49.5 -0.5,29.5C 2.83333,29.5 6.16667,29.5 9.5,29.5C 9.5,26.1667 9.5,22.8333 9.5,19.5C 12.8333,19.5 16.1667,19.5 19.5,19.5C 19.5,16.1667 19.5,12.8333 19.5,9.5C 22.8333,9.5 26.1667,9.5 29.5,9.5C 29.5,6.16667 29.5,2.83333 29.5,-0.5 Z"/></g>
<g><path style="opacity:1" fill="#cce4f1" d="M 99.5,39.5 C 109.5,39.5 119.5,39.5 129.5,39.5C 129.5,52.8333 129.5,66.1667 129.5,79.5C 122.833,79.5 116.167,79.5 109.5,79.5C 109.5,76.1667 109.5,72.8333 109.5,69.5C 106.167,69.5 102.833,69.5 99.5,69.5C 99.5,59.5 99.5,49.5 99.5,39.5 Z"/></g>
</svg>
