<?xml version="1.0" encoding="UTF-8"?>
<!DOCTYPE svg PUBLIC "-//W3C//DTD SVG 1.1//EN" "http://www.w3.org/Graphics/SVG/1.1/DTD/svg11.dtd">
<svg xmlns="http://www.w3.org/2000/svg" version="1.1" width="150px" height="180px" style="shape-rendering:geometricPrecision; text-rendering:geometricPrecision; image-rendering:optimizeQuality; fill-rule:evenodd; clip-rule:evenodd" xmlns:xlink="http://www.w3.org/1999/xlink">
<g><path style="opacity:1" fill="#fefffe" d="M 99.5,99.5 C 99.5,102.833 99.5,106.167 99.5,109.5C 102.833,109.5 106.167,109.5 109.5,109.5C 109.5,112.833 109.5,116.167 109.5,119.5C 112.833,119.5 116.167,119.5 119.5,119.5C 119.5,122.833 119.5,126.167 119.5,129.5C 122.833,129.5 126.167,129.5 129.5,129.5C 129.5,132.833 129.5,136.167 129.5,139.5C 132.833,139.5 136.167,139.5 139.5,139.5C 139.5,132.833 139.5,126.167 139.5,119.5C 142.833,119.5 146.167,119.5 149.5,119.5C 149.5,139.5 149.5,159.5 149.5,179.5C 146.167,179.5 142.833,179.5 139.5,179.5C 139.5,176.167 139.5,172.833 139.5,169.5C 136.167,169.5 132.833,169.5 129.5,169.5C 129.5,166.167 129.5,162.833 129.5,159.5C 126.167,159.5 122.833,159.5 119.5,159.5C 119.5,156.167 119.5,152.833 119.5,149.5C 116.167,149.5 112.833,149.5 109.5,149.5C 106.167,149.5 102.833,149.5 99.5,149.5C 99.5,146.167 99.5,142.833 99.5,139.5C 96.1667,139.5 92.8333,139.5 89.5,139.5C 89.5,146.167 89.5,152.833 89.5,159.5C 86.1667,159.5 82.8333,159.5 79.5,159.5C 79.5,166.167 79.5,172.833 79.5,179.5C 76.1667,179.5 72.8333,179.5 69.5,179.5C 69.5,172.833 69.5,166.167 69.5,159.5C 66.1667,159.5 62.8333,159.5 59.5,159.5C 59.5,152.833 59.5,146.167 59.5,139.5C 56.1667,139.5 52.8333,139.5 49.5,139.5C 49.5,142.833 49.5,146.167 49.5,149.5C 46.1667,149.5 42.8333,149.5 39.5,149.5C 36.1667,149.5 32.8333,149.5 29.5,149.5C 29.5,152.833 29.5,156.167 29.5,159.5C 26.1667,159.5 22.8333,159.5 19.5,159.5C 19.5,162.833 19.5,166.167 19.5,169.5C 16.1667,169.5 12.8333,169.5 9.5,169.5C 9.5,172.833 9.5,176.167 9.5,179.5C 6.16667,179.5 2.83333,179.5 -0.5,179.5C -0.5,159.5 -0.5,139.5 -0.5,119.5C 2.83333,119.5 6.16667,119.5 9.5,119.5C 9.5,126.167 9.5,132.833 9.5,139.5C 12.8333,139.5 16.1667,139.5 19.5,139.5C 19.5,136.167 19.5,132.833 19.5,129.5C 22.8333,129.5 26.1667,129.5 29.5,129.5C 29.5,126.167 29.5,122.833 29.5,119.5C 32.8333,119.5 36.1667,119.5 39.5,119.5C 39.5,116.167 39.5,112.833 39.5,109.5C 42.8333,109.5 46.1667,109.5 49.5,109.5C 49.5,106.167 49.5,102.833 49.5,99.5C 49.5,96.1667 49.5,92.8333 49.5,89.5C 52.8333,89.5 56.1667,89.5 59.5,89.5C 59.5,76.1667 59.5,62.8333 59.5,49.5C 62.8333,49.5 66.1667,49.5 69.5,49.5C 69.5,39.5 69.5,29.5 69.5,19.5C 72.8333,19.5 76.1667,19.5 79.5,19.5C 79.5,29.5 79.5,39.5 79.5,49.5C 82.8333,49.5 86.1667,49.5 89.5,49.5C 89.5,62.8333 89.5,76.1667 89.5,89.5C 92.8333,89.5 96.1667,89.5 99.5,89.5C 99.5,92.8333 99.5,96.1667 99.5,99.5 Z"/></g>
<g><path style="opacity:1" fill="#fefffe" d="M 39.5,99.5 C 39.5,102.833 39.5,106.167 39.5,109.5C 36.1667,109.5 32.8333,109.5 29.5,109.5C 29.5,102.833 29.5,96.1667 29.5,89.5C 32.8333,89.5 36.1667,89.5 39.5,89.5C 39.5,92.8333 39.5,96.1667 39.5,99.5 Z"/></g>
<g><path style="opacity:1" fill="#fefffe" d="M 119.5,109.5 C 116.167,109.5 112.833,109.5 109.5,109.5C 109.5,106.167 109.5,102.833 109.5,99.5C 109.5,96.1667 109.5,92.8333 109.5,89.5C 112.833,89.5 116.167,89.5 119.5,89.5C 119.5,96.1667 119.5,102.833 119.5,109.5 Z"/></g>
<g><path style="opacity:1" fill="#d61d00" d="M -0.5,99.5 C 2.83333,99.5 6.16667,99.5 9.5,99.5C 9.5,106.167 9.5,112.833 9.5,119.5C 6.16667,119.5 2.83333,119.5 -0.5,119.5C -0.5,112.833 -0.5,106.167 -0.5,99.5 Z"/></g>
<g><path style="opacity:1" fill="#d61d00" d="M 39.5,99.5 C 42.8333,99.5 46.1667,99.5 49.5,99.5C 49.5,102.833 49.5,106.167 49.5,109.5C 46.1667,109.5 42.8333,109.5 39.5,109.5C 39.5,106.167 39.5,102.833 39.5,99.5 Z"/></g>
<g><path style="opacity:1" fill="#d61d00" d="M 69.5,99.5 C 72.8333,99.5 76.1667,99.5 79.5,99.5C 79.5,102.833 79.5,106.167 79.5,109.5C 82.8333,109.5 86.1667,109.5 89.5,109.5C 89.5,116.167 89.5,122.833 89.5,129.5C 86.1667,129.5 82.8333,129.5 79.5,129.5C 79.5,126.167 79.5,122.833 79.5,119.5C 76.1667,119.5 72.8333,119.5 69.5,119.5C 69.5,122.833 69.5,126.167 69.5,129.5C 66.1667,129.5 62.8333,129.5 59.5,129.5C 59.5,122.833 59.5,116.167 59.5,109.5C 62.8333,109.5 66.1667,109.5 69.5,109.5C 69.5,106.167 69.5,102.833 69.5,99.5 Z"/></g>
<g><path style="opacity:1" fill="#d61d00" d="M 99.5,99.5 C 102.833,99.5 106.167,99.5 109.5,99.5C 109.5,102.833 109.5,106.167 109.5,109.5C 106.167,109.5 102.833,109.5 99.5,109.5C 99.5,106.167 99.5,102.833 99.5,99.5 Z"/></g>
<g><path style="opacity:1" fill="#d61d00" d="M 149.5,99.5 C 149.5,106.167 149.5,112.833 149.5,119.5C 146.167,119.5 142.833,119.5 139.5,119.5C 139.5,112.833 139.5,106.167 139.5,99.5C 142.833,99.5 146.167,99.5 149.5,99.5 Z"/></g>
<g><path style="opacity:1" fill="#d61d00" d="M 29.5,109.5 C 32.8333,109.5 36.1667,109.5 39.5,109.5C 39.5,112.833 39.5,116.167 39.5,119.5C 36.1667,119.5 32.8333,119.5 29.5,119.5C 29.5,116.167 29.5,112.833 29.5,109.5 Z"/></g>
<g><path style="opacity:1" fill="#d61d00" d="M 109.5,109.5 C 112.833,109.5 116.167,109.5 119.5,109.5C 119.5,112.833 119.5,116.167 119.5,119.5C 116.167,119.5 112.833,119.5 109.5,119.5C 109.5,116.167 109.5,112.833 109.5,109.5 Z"/></g>
<g><path style="opacity:1" fill="#d61d00" d="M 59.5,159.5 C 59.5,162.833 59.5,166.167 59.5,169.5C 52.8333,169.5 46.1667,169.5 39.5,169.5C 39.5,162.833 39.5,156.167 39.5,149.5C 42.8333,149.5 46.1667,149.5 49.5,149.5C 49.5,146.167 49.5,142.833 49.5,139.5C 52.8333,139.5 56.1667,139.5 59.5,139.5C 59.5,146.167 59.5,152.833 59.5,159.5 Z"/></g>
<g><path style="opacity:1" fill="#d61d00" d="M 109.5,149.5 C 109.5,156.167 109.5,162.833 109.5,169.5C 102.833,169.5 96.1667,169.5 89.5,169.5C 89.5,166.167 89.5,162.833 89.5,159.5C 89.5,152.833 89.5,146.167 89.5,139.5C 92.8333,139.5 96.1667,139.5 99.5,139.5C 99.5,142.833 99.5,146.167 99.5,149.5C 102.833,149.5 106.167,149.5 109.5,149.5 Z"/></g>
</svg>
